<svg width="200" height="150" viewBox="0 0 200 150" xmlns="http://www.w3.org/2000/svg">
  <defs>
    <linearGradient id="cr-blue" x1="0" y1="1" x2="1" y2="0">
      <stop offset="0%" stop-color="#1e3a8a"/>
      <stop offset="100%" stop-color="#2563eb"/>
    </linearGradient>
    <linearGradient id="cr-teal" x1="0" y1="1" x2="0" y2="0">
      <stop offset="0%" stop-color="#0d9488"/>
      <stop offset="100%" stop-color="#5eead4"/>
    </linearGradient>
    <linearGradient id="cr-orange" x1="0" y1="1" x2="1" y2="0">
      <stop offset="0%" stop-color="#f59e0b"/>
      <stop offset="100%" stop-color="#fb7185"/>
    </linearGradient>
    <linearGradient id="cr-base" x1="0" y1="0" x2="1" y2="0">
      <stop offset="0%" stop-color="#1d4ed8"/>
      <stop offset="50%" stop-color="#2dd4bf"/>
      <stop offset="100%" stop-color="#fb923c"/>
    </linearGradient>
    <radialGradient id="cr-glow" cx="50%" cy="50%" r="50%">
      <stop offset="0%" stop-color="#ffffff" stop-opacity="1"/>
      <stop offset="100%" stop-color="#ffffff" stop-opacity="0"/>
    </radialGradient>
  </defs>

  <!-- Cloud body: overlapping puffs, no strokes, so the seams stay invisible -->
  <rect x="18" y="68" width="164" height="58" rx="29" fill="url(#cr-base)"/>
  <circle cx="56" cy="82" r="38" fill="url(#cr-blue)"/>
  <circle cx="102" cy="52" r="46" fill="url(#cr-teal)"/>
  <circle cx="148" cy="84" r="34" fill="url(#cr-orange)"/>

  <!-- Circuit-hexagon core -->
  <circle cx="100" cy="95" r="26" fill="url(#cr-glow)"/>
  <g stroke="#ffffff" stroke-width="2.5" fill="none" opacity="0.95">
    <line x1="100" y1="95" x2="100" y2="60"/>
    <line x1="100" y1="95" x2="72" y2="72"/>
    <line x1="100" y1="95" x2="128" y2="72"/>
    <line x1="100" y1="95" x2="80" y2="115"/>
    <line x1="100" y1="95" x2="122" y2="115"/>
  </g>
  <g fill="#ffffff">
    <circle cx="100" cy="60" r="5"/>
    <circle cx="72" cy="72" r="4"/>
    <circle cx="128" cy="72" r="4"/>
    <circle cx="80" cy="115" r="4"/>
    <circle cx="122" cy="115" r="4"/>
    <polygon points="113,95 106.5,83.7 93.5,83.7 87,95 93.5,106.3 106.5,106.3"/>
  </g>
</svg>
